<svg xmlns="http://www.w3.org/2000/svg" viewBox="0 0 120 120" width="120" height="120">
  <rect width="120" height="120" fill="#07131f"/>
  <g transform="translate(10, 15) scale(0.65)">
    <path fill="#2f7de1" d="M42 58.5V84h65V33H42zm41.8-18.9c17 8.5 17.1 32.1.2 40.7-4.8 2.5-6.4 2.8-12.2 2.5-5.5-.3-7.5-.9-11-3.4-12.7-8.9-14.5-24.8-3.9-35.4 7.5-7.5 17.5-9.1 26.9-4.4"/>
    <path fill="#ffffff" d="M65.5 41.8C50 49.1 49.3 70 64.2 77.4c3 1.5 6.9 2.6 9.3 2.6 5.3 0 12.1-3.5 15.9-8.3 2.6-3.2 3.1-4.8 3.4-10.5.2-5.5-.1-7.4-2-10.7-5.1-8.8-16.7-12.8-25.3-8.7m17.4 9.6 5.4 5.5-2.4 5.5C84.6 65.5 83.3 68 83 68s-4.5-4-9.3-8.8l-8.9-8.9 5.4-2c2.9-1.2 5.8-2.1 6.3-2.2.6 0 3.5 2.3 6.4 5.3m-2.7 18.8c-.4.3-2.8 1.6-5.3 2.6l-4.6 2-5.7-5.7-5.6-5.7 2.3-5.7 2.2-5.7 8.7 8.7c4.8 4.8 8.4 9.1 8 9.5"/>
  </g>
</svg>
