<svg xmlns="http://www.w3.org/2000/svg" viewBox="0 0 1200 630" width="1200" height="630">
  <!-- Background gradient -->
  <defs>
    <linearGradient id="bgGrad" x1="0%" y1="0%" x2="100%" y2="100%">
      <stop offset="0%" style="stop-color:#07131f;stop-opacity:1" />
      <stop offset="100%" style="stop-color:#1a2332;stop-opacity:1" />
    </linearGradient>
  </defs>
  <rect width="1200" height="630" fill="url(#bgGrad)"/>
  
  <!-- Logo -->
  <g transform="translate(150, 200) scale(1.6)">
    <path fill="#2f7de1" d="M42 58.5V84h65V33H42zm41.8-18.9c17 8.5 17.1 32.1.2 40.7-4.8 2.5-6.4 2.8-12.2 2.5-5.5-.3-7.5-.9-11-3.4-12.7-8.9-14.5-24.8-3.9-35.4 7.5-7.5 17.5-9.1 26.9-4.4"/>
    <path fill="#ffffff" d="M65.5 41.8C50 49.1 49.3 70 64.2 77.4c3 1.5 6.9 2.6 9.3 2.6 5.3 0 12.1-3.5 15.9-8.3 2.6-3.2 3.1-4.8 3.4-10.5.2-5.5-.1-7.4-2-10.7-5.1-8.8-16.7-12.8-25.3-8.7m17.4 9.6 5.4 5.5-2.4 5.5C84.6 65.5 83.3 68 83 68s-4.5-4-9.3-8.8l-8.9-8.9 5.4-2c2.9-1.2 5.8-2.1 6.3-2.2.6 0 3.5 2.3 6.4 5.3m-2.7 18.8c-.4.3-2.8 1.6-5.3 2.6l-4.6 2-5.7-5.7-5.6-5.7 2.3-5.7 2.2-5.7 8.7 8.7c4.8 4.8 8.4 9.1 8 9.5"/>
  </g>
  
  <!-- Company name -->
  <text x="550" y="250" font-family="'Arial Black', Arial, sans-serif" font-size="72" font-weight="900" 
        fill="#ffffff" letter-spacing="2">STROYKLIMAT</text>
  <text x="550" y="310" font-family="Arial, sans-serif" font-size="36" 
        fill="#2f7de1" letter-spacing="1">ТОВ "Бис 7"</text>
  
  <!-- Tagline -->
  <text x="550" y="380" font-family="Arial, sans-serif" font-size="28" 
        fill="#ffffff" opacity="0.9">Професійні системи вентиляції</text>
  <text x="550" y="420" font-family="Arial, sans-serif" font-size="28" 
        fill="#ffffff" opacity="0.9">та кондиціонування</text>
</svg>
